<svg fill="currentColor" viewBox="0 0 24 24">
    <path d="M12 2C6.48 2 2 6.58 2 12.26c0 4.5 2.87 8.31 6.84 9.66c.5.09.66-.22.66-.47c0-.23-.01-.84-.01-1.65c-2.78.61-3.37-1.36-3.37-1.36c-.46-1.2-1.12-1.52-1.12-1.52c-.92-.65.07-.64.07-.64c1.01.07 1.54 1.05 1.54 1.05c.9 1.57 2.36 1.12 2.94.86c.09-.66.35-1.12.63-1.38c-2.22-.26-4.56-1.13-4.56-5A3.96 3.96 0 0 1 6.62 8.4a3.67 3.67 0 0 1 .1-2.72s.84-.27 2.75 1.02a9.56 9.56 0 0 1 5 0c1.91-1.29 2.75-1.02 2.75-1.02c.55 1.41.2 2.45.1 2.72c.63.71 1.01 1.64 1.01 2.72c0 3.88-2.35 4.74-4.58 5c.36.33.69.97.69 1.96c0 1.41-.01 2.55-.01 2.9c0 .25.17.56.68.46A10.27 10.27 0 0 0 22 12.26C22 6.58 17.52 2 12 2z"/>
</svg>